<?xml version="1.0" encoding="UTF-8" standalone="no"?>
<svg
   xmlns:dc="http://purl.org/dc/elements/1.1/"
   xmlns:cc="http://creativecommons.org/ns#"
   xmlns:rdf="http://www.w3.org/1999/02/22-rdf-syntax-ns#"
   xmlns:svg="http://www.w3.org/2000/svg"
   xmlns="http://www.w3.org/2000/svg"
   xmlns:sodipodi="http://sodipodi.sourceforge.net/DTD/sodipodi-0.dtd"
   xmlns:inkscape="http://www.inkscape.org/namespaces/inkscape"
   version="1.1"
   viewBox="0.0 0.0 960.0 540.0"
   fill="none"
   stroke="none"
   stroke-linecap="square"
   stroke-miterlimit="10"
   id="svg71"
   sodipodi:docname="sits-docker-arch.svg"
   inkscape:version="1.0.1 (3bc2e813f5, 2020-09-07)">
  <metadata
     id="metadata77">
    <rdf:RDF>
      <cc:Work
         rdf:about="">
        <dc:format>image/svg+xml</dc:format>
        <dc:type
           rdf:resource="http://purl.org/dc/dcmitype/StillImage" />
      </cc:Work>
    </rdf:RDF>
  </metadata>
  <defs
     id="defs75" />
  <sodipodi:namedview
     pagecolor="#ffffff"
     bordercolor="#666666"
     borderopacity="1"
     objecttolerance="10"
     gridtolerance="10"
     guidetolerance="10"
     inkscape:pageopacity="0"
     inkscape:pageshadow="2"
     inkscape:window-width="1600"
     inkscape:window-height="863"
     id="namedview73"
     showgrid="false"
     inkscape:zoom="0.96858898"
     inkscape:cx="406.97242"
     inkscape:cy="305.03018"
     inkscape:window-x="0"
     inkscape:window-y="0"
     inkscape:window-maximized="1"
     inkscape:current-layer="g69" />
  <clipPath
     id="g10de957e34e_0_22.0">
    <path
       d="m0 0l960.0 0l0 540.0l-960.0 0l0 -540.0z"
       clip-rule="nonzero"
       id="path2" />
  </clipPath>
  <g
     clip-path="url(#g10de957e34e_0_22.0)"
     id="g69">
    <path
       fill="#ffffff"
       d="m 155.62993,113.34141 v 0 c 0,-5.54615 4.49603,-10.0422 10.04219,-10.0422 h 181.04947 c 2.66336,0 5.21762,1.05802 7.10089,2.94129 1.8833,1.88328 2.94132,4.43756 2.94132,7.10091 v 40.16758 c 0,5.54614 -4.49607,10.04219 -10.04221,10.04219 H 165.67212 c -5.54616,0 -10.04219,-4.49605 -10.04219,-10.04219 z"
       fill-rule="evenodd"
       id="path7"
       inkscape:export-xdpi="300"
       inkscape:export-ydpi="300" />
    <path
       stroke="#595959"
       stroke-width="1"
       stroke-linejoin="round"
       stroke-linecap="butt"
       d="m 155.62993,113.34141 v 0 c 0,-5.54615 4.49603,-10.0422 10.04219,-10.0422 h 181.04947 c 2.66336,0 5.21762,1.05802 7.10089,2.94129 1.8833,1.88328 2.94132,4.43756 2.94132,7.10091 v 40.16758 c 0,5.54614 -4.49607,10.04219 -10.04221,10.04219 H 165.67212 c -5.54616,0 -10.04219,-4.49605 -10.04219,-10.04219 z"
       fill-rule="evenodd"
       id="path9"
       inkscape:export-xdpi="300"
       inkscape:export-ydpi="300" />
    <path
       fill="#1c4587"
       d="m 221.56325,136.86082 q 0,-0.76563 -0.54688,-1.17188 -0.54687,-0.42187 -1.96875,-0.875 -1.42187,-0.46875 -2.25,-0.92187 -2.26562,-1.21875 -2.26562,-3.28125 0,-1.07813 0.60937,-1.92188 0.60938,-0.84375 1.73438,-1.3125 1.14062,-0.48438 2.5625,-0.48438 1.40625,0 2.51562,0.51563 1.125,0.51562 1.73438,1.45313 0.60937,0.9375 0.60937,2.14062 h -2.71875 q 0,-0.90625 -0.57812,-1.40625 -0.57813,-0.51562 -1.60938,-0.51562 -1.01562,0 -1.57812,0.42187 -0.54688,0.42188 -0.54688,1.10938 0,0.65625 0.65625,1.09375 0.65625,0.4375 1.92188,0.8125 2.32812,0.70312 3.39062,1.75 1.0625,1.03125 1.0625,2.57812 0,1.71875 -1.29687,2.70313 -1.29688,0.98437 -3.5,0.98437 -1.53125,0 -2.79688,-0.5625 -1.25,-0.5625 -1.92187,-1.53125 -0.65625,-0.98437 -0.65625,-2.26562 h 2.75 q 0,2.1875 2.625,2.1875 0.96875,0 1.51562,-0.39063 0.54688,-0.39062 0.54688,-1.10937 z m 7.50011,3.48437 h -2.73438 v -13.26563 h 2.73438 z m 12.25216,-11.04687 h -4.0625 v 11.04687 h -2.73437 v -11.04687 h -4.01563 v -2.21876 h 10.8125 z m 8.28653,7.5625 q 0,-0.76563 -0.54687,-1.17188 -0.54688,-0.42187 -1.96875,-0.875 -1.42188,-0.46875 -2.25,-0.92187 -2.26563,-1.21875 -2.26563,-3.28125 0,-1.07813 0.60938,-1.92188 0.60937,-0.84375 1.73437,-1.3125 1.14063,-0.48438 2.5625,-0.48438 1.40625,0 2.51563,0.51563 1.125,0.51562 1.73437,1.45313 0.60938,0.9375 0.60938,2.14062 h -2.71875 q 0,-0.90625 -0.57813,-1.40625 -0.57812,-0.51562 -1.60937,-0.51562 -1.01563,0 -1.57813,0.42187 -0.54687,0.42188 -0.54687,1.10938 0,0.65625 0.65625,1.09375 0.65625,0.4375 1.92187,0.8125 2.32813,0.70312 3.39063,1.75 1.0625,1.03125 1.0625,2.57812 0,1.71875 -1.29688,2.70313 -1.29687,0.98437 -3.5,0.98437 -1.53125,0 -2.79687,-0.5625 -1.25,-0.5625 -1.92188,-1.53125 -0.65625,-0.98437 -0.65625,-2.26562 h 2.75 q 0,2.1875 2.625,2.1875 0.96875,0 1.51563,-0.39063 0.54687,-0.39062 0.54687,-1.10937 z"
       fill-rule="nonzero"
       id="path11"
       inkscape:export-xdpi="300"
       inkscape:export-ydpi="300" />
    <path
       fill="#000000"
       d="m 259.1738,140.3452 v -13.26563 h 4.32813 q 2.15625,0 3.25,0.89062 1.09375,0.89063 1.09375,2.64063 0,0.9375 -0.53125,1.65625 -0.53125,0.70313 -1.4375,1.09375 1.0625,0.3125 1.6875,1.15625 0.625,0.84375 0.625,2 0,1.78125 -1.15625,2.8125 -1.15625,1.01563 -3.26563,1.01563 z m 1.73438,-6.20313 v 4.76563 h 2.89062 q 1.21875,0 1.92188,-0.625 0.71875,-0.64063 0.71875,-1.75 0,-2.39063 -2.60938,-2.39063 z m 0,-1.40625 h 2.65625 q 1.14062,0 1.82812,-0.5625 0.6875,-0.57812 0.6875,-1.5625 0,-1.09375 -0.64062,-1.59375 -0.64063,-0.5 -1.9375,-0.5 h -2.59375 z m 15.69274,7.60938 q -0.14062,-0.29688 -0.23437,-1.03125 -1.17188,1.21875 -2.8125,1.21875 -1.45313,0 -2.39063,-0.82813 -0.92187,-0.82812 -0.92187,-2.09375 0,-1.53125 1.15625,-2.375 1.17187,-0.85937 3.29687,-0.85937 h 1.64063 v -0.78125 q 0,-0.89063 -0.53125,-1.40625 -0.51563,-0.53125 -1.54688,-0.53125 -0.90625,0 -1.51562,0.46875 -0.60938,0.45312 -0.60938,1.09375 h -1.70312 q 0,-0.73438 0.51562,-1.42188 0.53125,-0.6875 1.42188,-1.07812 0.90625,-0.40625 1.98437,-0.40625 1.70313,0 2.67188,0.85937 0.96875,0.84375 1,2.32813 v 4.53125 q 0,1.35937 0.34375,2.17187 v 0.14063 z m -2.79687,-1.28125 q 0.79687,0 1.5,-0.40625 0.71875,-0.42188 1.03125,-1.07813 v -2.01562 h -1.3125 q -3.10938,0 -3.10938,1.8125 0,0.79687 0.53125,1.25 0.53125,0.4375 1.35938,0.4375 z m 12.6011,-1.32813 q 0,-0.6875 -0.51562,-1.0625 -0.51563,-0.375 -1.79688,-0.64062 -1.28125,-0.28125 -2.03125,-0.65625 -0.75,-0.39063 -1.10937,-0.92188 -0.35938,-0.53125 -0.35938,-1.26562 0,-1.20313 1.01563,-2.03125 1.03125,-0.84375 2.625,-0.84375 1.67187,0 2.71872,0.85937 1.04687,0.85938 1.04687,2.21875 h -1.68747 q 0,-0.70312 -0.59375,-1.20312 -0.59375,-0.5 -1.48437,-0.5 -0.92188,0 -1.4375,0.40625 -0.51563,0.39062 -0.51563,1.04687 0,0.60938 0.48438,0.92188 0.48437,0.3125 1.73437,0.59375 1.26563,0.28125 2.04688,0.67187 0.78122,0.39063 1.15622,0.9375 0.39062,0.54688 0.39062,1.34375 0,1.32813 -1.0625,2.125 -1.04684,0.79688 -2.73434,0.79688 -1.1875,0 -2.10938,-0.42188 -0.90625,-0.42187 -1.42187,-1.17187 -0.51563,-0.75 -0.51563,-1.625 h 1.6875 q 0.0469,0.84375 0.67188,1.34375 0.64062,0.5 1.6875,0.5 0.95312,0 1.53125,-0.39063 0.57812,-0.39062 0.57812,-1.03125 z m 7.96335,2.79688 q -2,0 -3.26562,-1.3125 -1.25,-1.32813 -1.25,-3.53125 v -0.3125 q 0,-1.46875 0.5625,-2.60938 0.5625,-1.15625 1.5625,-1.79687 1.01562,-0.65625 2.1875,-0.65625 1.92187,0 2.98437,1.26562 1.0625,1.26563 1.0625,3.625 v 0.6875 h -6.67187 q 0.0312,1.46875 0.84375,2.375 0.82812,0.89063 2.07812,0.89063 0.89063,0 1.51563,-0.35938 0.625,-0.375 1.07812,-0.96875 l 1.03125,0.79688 q -1.23437,1.90625 -3.71875,1.90625 z m -0.20312,-8.84375 q -1.01563,0 -1.71875,0.75 -0.6875,0.73437 -0.84375,2.07812 h 4.9375 v -0.125 q -0.0781,-1.28125 -0.70313,-1.98437 -0.60937,-0.71875 -1.67187,-0.71875 z"
       fill-rule="nonzero"
       id="path13"
       inkscape:export-xdpi="300"
       inkscape:export-ydpi="300" />
    <path
       fill="#ffffff"
       d="m 155.62993,208.58418 v 0 c 0,-5.54614 4.49603,-10.04219 10.04219,-10.04219 h 181.04947 c 2.66336,0 5.21762,1.05801 7.10089,2.9413 1.8833,1.88327 2.94132,4.43754 2.94132,7.10089 v 40.16759 c 0,5.54614 -4.49607,10.0422 -10.04221,10.0422 H 165.67212 c -5.54616,0 -10.04219,-4.49606 -10.04219,-10.0422 z"
       fill-rule="evenodd"
       id="path15"
       inkscape:export-xdpi="300"
       inkscape:export-ydpi="300" />
    <path
       stroke="#595959"
       stroke-width="1"
       stroke-linejoin="round"
       stroke-linecap="butt"
       d="m 155.62993,208.58418 v 0 c 0,-5.54614 4.49603,-10.04219 10.04219,-10.04219 h 181.04947 c 2.66336,0 5.21762,1.05801 7.10089,2.9413 1.8833,1.88327 2.94132,4.43754 2.94132,7.10089 v 40.16759 c 0,5.54614 -4.49607,10.0422 -10.04221,10.0422 H 165.67212 c -5.54616,0 -10.04219,-4.49606 -10.04219,-10.0422 z"
       fill-rule="evenodd"
       id="path17"
       inkscape:export-xdpi="300"
       inkscape:export-ydpi="300" />
    <path
       fill="#1c4587"
       d="m 236.45273,232.10359 q 0,-0.76563 -0.54688,-1.17188 -0.54687,-0.42187 -1.96875,-0.875 -1.42187,-0.46875 -2.25,-0.92187 -2.26562,-1.21875 -2.26562,-3.28125 0,-1.07813 0.60937,-1.92188 0.60938,-0.84375 1.73438,-1.3125 1.14062,-0.48437 2.5625,-0.48437 1.40625,0 2.51562,0.51562 1.125,0.51563 1.73438,1.45313 0.60937,0.9375 0.60937,2.14062 h -2.71875 q 0,-0.90625 -0.57812,-1.40625 -0.57813,-0.51562 -1.60938,-0.51562 -1.01562,0 -1.57812,0.42187 -0.54688,0.42188 -0.54688,1.10938 0,0.65625 0.65625,1.09375 0.65625,0.4375 1.92188,0.8125 2.32812,0.70312 3.39062,1.75 1.0625,1.03125 1.0625,2.57812 0,1.71875 -1.29687,2.70313 -1.29688,0.98437 -3.5,0.98437 -1.53125,0 -2.79688,-0.5625 -1.25,-0.5625 -1.92187,-1.53125 -0.65625,-0.98437 -0.65625,-2.26562 h 2.75 q 0,2.1875 2.625,2.1875 0.96875,0 1.51562,-0.39063 0.54688,-0.39062 0.54688,-1.10937 z m 7.50011,3.48437 h -2.73438 v -13.26562 h 2.73438 z m 12.25215,-11.04687 h -4.06249 v 11.04687 h -2.73437 v -11.04687 h -4.01563 v -2.21875 h 10.81249 z m 8.28653,7.5625 q 0,-0.76563 -0.54688,-1.17188 -0.54687,-0.42187 -1.96875,-0.875 -1.42187,-0.46875 -2.25,-0.92187 -2.26562,-1.21875 -2.26562,-3.28125 0,-1.07813 0.60937,-1.92188 0.60938,-0.84375 1.73438,-1.3125 1.14062,-0.48437 2.5625,-0.48437 1.40625,0 2.51562,0.51562 1.125,0.51563 1.73438,1.45313 0.60937,0.9375 0.60937,2.14062 h -2.71875 q 0,-0.90625 -0.57812,-1.40625 -0.57813,-0.51562 -1.60938,-0.51562 -1.01562,0 -1.57812,0.42187 -0.54688,0.42188 -0.54688,1.10938 0,0.65625 0.65625,1.09375 0.65625,0.4375 1.92188,0.8125 2.32812,0.70312 3.39062,1.75 1.0625,1.03125 1.0625,2.57812 0,1.71875 -1.29687,2.70313 -1.29688,0.98437 -3.5,0.98437 -1.53125,0 -2.79688,-0.5625 -1.25,-0.5625 -1.92187,-1.53125 -0.65625,-0.98437 -0.65625,-2.26562 h 2.75 q 0,2.1875 2.625,2.1875 0.96875,0 1.51562,-0.39063 0.54688,-0.39062 0.54688,-1.10937 z"
       fill-rule="nonzero"
       id="path19"
       inkscape:export-xdpi="300"
       inkscape:export-ydpi="300" />
    <path
       fill="#000000"
       d="m 278.92264,230.22859 h -3.125 v 5.35937 h -1.75 v -13.26562 h 4.39062 q 2.23438,0 3.4375,1.03125 1.21875,1.01562 1.21875,2.95312 0,1.25 -0.67187,2.17188 -0.67188,0.92187 -1.85938,1.375 l 3.10938,5.625 v 0.10937 h -1.875 z m -3.125,-1.4375 h 2.6875 q 1.3125,0 2.07812,-0.67188 0.76563,-0.67187 0.76563,-1.8125 0,-1.21875 -0.73438,-1.875 -0.73437,-0.65625 -2.10937,-0.67187 h -2.6875 z"
       fill-rule="nonzero"
       id="path21"
       inkscape:export-xdpi="300"
       inkscape:export-ydpi="300" />
    <path
       fill="#ffffff"
       d="m 391.97638,208.58418 v 0 c 0,-5.54614 4.49603,-10.04219 10.04221,-10.04219 h 181.04947 c 2.66333,0 5.21759,1.05801 7.10089,2.9413 1.8833,1.88327 2.94128,4.43754 2.94128,7.10089 v 40.16759 c 0,5.54614 -4.49603,10.0422 -10.04217,10.0422 H 402.01859 c -5.54618,0 -10.04221,-4.49606 -10.04221,-10.0422 z"
       fill-rule="evenodd"
       id="path23"
       inkscape:export-xdpi="300"
       inkscape:export-ydpi="300" />
    <path
       stroke="#595959"
       stroke-width="1"
       stroke-linejoin="round"
       stroke-linecap="butt"
       d="m 391.97638,208.58418 v 0 c 0,-5.54614 4.49603,-10.04219 10.04221,-10.04219 h 181.04947 c 2.66333,0 5.21759,1.05801 7.10089,2.9413 1.8833,1.88327 2.94128,4.43754 2.94128,7.10089 v 40.16759 c 0,5.54614 -4.49603,10.0422 -10.04217,10.0422 H 402.01859 c -5.54618,0 -10.04221,-4.49606 -10.04221,-10.0422 z"
       fill-rule="evenodd"
       id="path25"
       inkscape:export-xdpi="300"
       inkscape:export-ydpi="300" />
    <path
       fill="#1c4587"
       d="m 480.852,232.10359 q 0,-0.76563 -0.54688,-1.17188 -0.54687,-0.42187 -1.96875,-0.875 -1.42187,-0.46875 -2.25,-0.92187 -2.26562,-1.21875 -2.26562,-3.28125 0,-1.07813 0.60937,-1.92188 0.60938,-0.84375 1.73438,-1.3125 1.14062,-0.48437 2.5625,-0.48437 1.40625,0 2.51562,0.51562 1.125,0.51563 1.73438,1.45313 0.60937,0.9375 0.60937,2.14062 h -2.71875 q 0,-0.90625 -0.57812,-1.40625 -0.57813,-0.51562 -1.60938,-0.51562 -1.01562,0 -1.57812,0.42187 -0.54688,0.42188 -0.54688,1.10938 0,0.65625 0.65625,1.09375 0.65625,0.4375 1.92188,0.8125 2.32812,0.70312 3.39062,1.75 1.0625,1.03125 1.0625,2.57812 0,1.71875 -1.29687,2.70313 -1.29688,0.98437 -3.5,0.98437 -1.53125,0 -2.79688,-0.5625 -1.25,-0.5625 -1.92187,-1.53125 -0.65625,-0.98437 -0.65625,-2.26562 h 2.75 q 0,2.1875 2.625,2.1875 0.96875,0 1.51562,-0.39063 0.54688,-0.39062 0.54688,-1.10937 z m 7.50009,3.48437 h -2.73437 v -13.26562 h 2.73437 z m 12.25217,-11.04687 h -4.0625 v 11.04687 h -2.73438 v -11.04687 h -4.01562 v -2.21875 h 10.8125 z m 8.28653,7.5625 q 0,-0.76563 -0.54688,-1.17188 -0.54687,-0.42187 -1.96875,-0.875 -1.42187,-0.46875 -2.25,-0.92187 -2.26562,-1.21875 -2.26562,-3.28125 0,-1.07813 0.60937,-1.92188 0.60938,-0.84375 1.73438,-1.3125 1.14062,-0.48437 2.5625,-0.48437 1.40625,0 2.51562,0.51562 1.125,0.51563 1.73438,1.45313 0.60937,0.9375 0.60937,2.14062 h -2.71875 q 0,-0.90625 -0.57812,-1.40625 -0.57813,-0.51562 -1.60938,-0.51562 -1.01562,0 -1.57812,0.42187 -0.54688,0.42188 -0.54688,1.10938 0,0.65625 0.65625,1.09375 0.65625,0.4375 1.92188,0.8125 2.32812,0.70312 3.39062,1.75 1.0625,1.03125 1.0625,2.57812 0,1.71875 -1.29687,2.70313 -1.29688,0.98437 -3.5,0.98437 -1.53125,0 -2.79688,-0.5625 -1.25,-0.5625 -1.92187,-1.53125 -0.65625,-0.98437 -0.65625,-2.26562 h 2.75 q 0,2.1875 2.625,2.1875 0.96875,0 1.51562,-0.39063 0.54688,-0.39062 0.54688,-1.10937 z"
       fill-rule="nonzero"
       id="path27"
       inkscape:export-xdpi="300"
       inkscape:export-ydpi="300" />
    <path
       fill="#ffffff"
       d="m 391.97638,299.43588 v 0 c 0,-5.54614 4.49603,-10.04218 10.04221,-10.04218 h 181.04947 c 2.66333,0 5.21759,1.05802 7.10089,2.94129 1.8833,1.88327 2.94128,4.43756 2.94128,7.10089 v 40.1676 c 0,5.54615 -4.49603,10.04218 -10.04217,10.04218 H 402.01859 c -5.54618,0 -10.04221,-4.49603 -10.04221,-10.04218 z"
       fill-rule="evenodd"
       id="path29"
       inkscape:export-xdpi="300"
       inkscape:export-ydpi="300" />
    <path
       stroke="#595959"
       stroke-width="1"
       stroke-linejoin="round"
       stroke-linecap="butt"
       d="m 391.97638,299.43588 v 0 c 0,-5.54614 4.49603,-10.04218 10.04221,-10.04218 h 181.04947 c 2.66333,0 5.21759,1.05802 7.10089,2.94129 1.8833,1.88327 2.94128,4.43756 2.94128,7.10089 v 40.1676 c 0,5.54615 -4.49603,10.04218 -10.04217,10.04218 H 402.01859 c -5.54618,0 -10.04221,-4.49603 -10.04221,-10.04218 z"
       fill-rule="evenodd"
       id="path31"
       inkscape:export-xdpi="300"
       inkscape:export-ydpi="300" />
    <path
       fill="#1c4587"
       d="m 446.21768,322.9553 q 0,-0.76562 -0.54688,-1.17187 -0.54687,-0.42188 -1.96875,-0.875 -1.42187,-0.46875 -2.25,-0.92188 -2.26562,-1.21875 -2.26562,-3.28125 0,-1.07812 0.60937,-1.92187 0.60938,-0.84375 1.73438,-1.3125 1.14062,-0.48438 2.5625,-0.48438 1.40625,0 2.51562,0.51563 1.125,0.51562 1.73438,1.45312 0.60937,0.9375 0.60937,2.14063 h -2.71875 q 0,-0.90625 -0.57812,-1.40625 -0.57813,-0.51563 -1.60938,-0.51563 -1.01562,0 -1.57812,0.42188 -0.54688,0.42187 -0.54688,1.10937 0,0.65625 0.65625,1.09375 0.65625,0.4375 1.92188,0.8125 2.32812,0.70313 3.39062,1.75 1.0625,1.03125 1.0625,2.57813 0,1.71875 -1.29687,2.70312 -1.29688,0.98438 -3.5,0.98438 -1.53125,0 -2.79688,-0.5625 -1.25,-0.5625 -1.92187,-1.53125 -0.65625,-0.98438 -0.65625,-2.26563 h 2.75 q 0,2.1875 2.625,2.1875 0.96875,0 1.51562,-0.39062 0.54688,-0.39063 0.54688,-1.10938 z m 7.50009,3.48438 h -2.73437 v -13.26563 h 2.73437 z m 12.25217,-11.04688 h -4.0625 v 11.04688 h -2.73438 V 315.3928 h -4.01562 v -2.21875 h 10.8125 z m 8.28653,7.5625 q 0,-0.76562 -0.54688,-1.17187 -0.54687,-0.42188 -1.96875,-0.875 -1.42187,-0.46875 -2.25,-0.92188 -2.26562,-1.21875 -2.26562,-3.28125 0,-1.07812 0.60937,-1.92187 0.60938,-0.84375 1.73438,-1.3125 1.14062,-0.48438 2.5625,-0.48438 1.40625,0 2.51562,0.51563 1.125,0.51562 1.73438,1.45312 0.60937,0.9375 0.60937,2.14063 h -2.71875 q 0,-0.90625 -0.57812,-1.40625 -0.57813,-0.51563 -1.60938,-0.51563 -1.01562,0 -1.57812,0.42188 -0.54688,0.42187 -0.54688,1.10937 0,0.65625 0.65625,1.09375 0.65625,0.4375 1.92188,0.8125 2.32812,0.70313 3.39062,1.75 1.0625,1.03125 1.0625,2.57813 0,1.71875 -1.29687,2.70312 -1.29688,0.98438 -3.5,0.98438 -1.53125,0 -2.79688,-0.5625 -1.25,-0.5625 -1.92187,-1.53125 -0.65625,-0.98438 -0.65625,-2.26563 h 2.75 q 0,2.1875 2.625,2.1875 0.96875,0 1.51562,-0.39062 0.54688,-0.39063 0.54688,-1.10938 z"
       fill-rule="nonzero"
       id="path33"
       inkscape:export-xdpi="300"
       inkscape:export-ydpi="300" />
    <path
       fill="#000000"
       d="m 488.71494,321.0803 h -3.125 v 5.35938 h -1.75 v -13.26563 h 4.39063 q 2.23437,0 3.4375,1.03125 1.21875,1.01563 1.21875,2.95313 0,1.25 -0.67188,2.17187 -0.67187,0.92188 -1.85937,1.375 l 3.10937,5.625 v 0.10938 h -1.875 z m -3.125,-1.4375 h 2.6875 q 1.3125,0 2.07813,-0.67187 0.76562,-0.67188 0.76562,-1.8125 0,-1.21875 -0.73437,-1.875 -0.73438,-0.65625 -2.10938,-0.67188 h -2.6875 z m 13.65894,0.89063 q -2.25,-0.65625 -3.28125,-1.59375 -1.03125,-0.9375 -1.03125,-2.32813 0,-1.5625 1.25,-2.59375 1.26562,-1.03125 3.26562,-1.03125 1.35938,0 2.4375,0.53125 1.07813,0.53125 1.65625,1.46875 0.59375,0.92188 0.59375,2.03125 h -1.76562 q 0,-1.20312 -0.76563,-1.89062 -0.76562,-0.6875 -2.15625,-0.6875 -1.29687,0 -2.01562,0.5625 -0.71875,0.5625 -0.71875,1.57812 0,0.8125 0.6875,1.375 0.6875,0.5625 2.32812,1.03125 1.65625,0.45313 2.59375,1.01563 0.9375,0.5625 1.375,1.3125 0.45313,0.75 0.45313,1.75 0,1.60937 -1.25,2.59375 -1.25,0.96875 -3.35938,0.96875 -1.375,0 -2.5625,-0.51563 -1.17187,-0.53125 -1.8125,-1.4375 -0.64062,-0.92187 -0.64062,-2.07812 h 1.75 q 0,1.20312 0.89062,1.90625 0.89063,0.6875 2.375,0.6875 1.375,0 2.10938,-0.5625 0.75,-0.5625 0.75,-1.53125 0,-0.98438 -0.6875,-1.51563 -0.6875,-0.53125 -2.46875,-1.04687 z m 9.17743,-6.34375 v 2.39062 h 1.84375 v 1.3125 h -1.84375 v 6.10938 q 0,0.59375 0.23437,0.89062 0.25,0.29688 0.84375,0.29688 0.29688,0 0.8125,-0.10938 v 1.35938 q -0.67187,0.1875 -1.29687,0.1875 -1.125,0 -1.70313,-0.6875 -0.57812,-0.6875 -0.57812,-1.9375 v -6.10938 h -1.79688 v -1.3125 h 1.79688 v -2.39062 z m 9.89114,11.28125 q -0.98438,1.15625 -2.89063,1.15625 -1.57812,0 -2.40625,-0.92188 -0.8125,-0.92187 -0.82812,-2.70312 v -6.42188 h 1.6875 v 6.375 q 0,2.23438 1.82812,2.23438 1.92188,0 2.5625,-1.4375 v -7.17188 h 1.6875 v 9.85938 h -1.60937 z m 3.78461,-4.04688 q 0,-2.26562 1.07812,-3.64062 1.07813,-1.375 2.8125,-1.375 1.73438,0 2.75,1.17187 v -5.14062 h 1.6875 v 14 h -1.54687 l -0.0937,-1.0625 q -1,1.25 -2.8125,1.25 -1.70313,0 -2.79688,-1.40625 -1.07812,-1.40625 -1.07812,-3.65625 z m 1.6875,0.20313 q 0,1.67187 0.6875,2.625 0.70312,0.9375 1.92187,0.9375 1.60938,0 2.34375,-1.4375 v -4.53125 q -0.76562,-1.39063 -2.32812,-1.39063 -1.23438,0 -1.9375,0.95313 -0.6875,0.95312 -0.6875,2.84375 z m 11.08398,4.8125 h -1.6875 v -9.85938 h 1.6875 z m -1.82812,-12.46875 q 0,-0.40625 0.25,-0.6875 0.25,-0.29688 0.73437,-0.29688 0.5,0 0.75,0.29688 0.26563,0.28125 0.26563,0.6875 0,0.40625 -0.26563,0.6875 -0.25,0.26562 -0.75,0.26562 -0.48437,0 -0.73437,-0.26562 -0.25,-0.28125 -0.25,-0.6875 z m 4.07428,7.45312 q 0,-1.45312 0.5625,-2.60937 0.57812,-1.15625 1.59375,-1.78125 1.01562,-0.625 2.3125,-0.625 2.01562,0 3.25,1.39062 1.25,1.39063 1.25,3.70313 v 0.125 q 0,1.4375 -0.54688,2.57812 -0.54687,1.14063 -1.57812,1.78125 -1.01563,0.64063 -2.35938,0.64063 -2,0 -3.25,-1.39063 -1.23437,-1.40625 -1.23437,-3.70312 z m 1.6875,0.20313 q 0,1.64062 0.76562,2.64062 0.76563,0.98438 2.03125,0.98438 1.29688,0 2.04688,-1 0.75,-1.01563 0.75,-2.82813 0,-1.625 -0.76563,-2.625 -0.76562,-1.01562 -2.04687,-1.01562 -1.25,0 -2.01563,1 -0.76562,0.98437 -0.76562,2.84375 z"
       fill-rule="nonzero"
       id="path35"
       inkscape:export-xdpi="300"
       inkscape:export-ydpi="300" />
    <path
       fill="#ffffff"
       d="m 625.1496,299.43588 v 0 c 0,-5.54614 4.49603,-10.04218 10.04217,-10.04218 h 181.0495 c 2.66333,0 5.21766,1.05802 7.1009,2.94129 1.8833,1.88327 2.94128,4.43756 2.94128,7.10089 v 40.1676 c 0,5.54615 -4.49603,10.04218 -10.04217,10.04218 h -181.0495 c -5.54615,0 -10.04218,-4.49603 -10.04218,-10.04218 z"
       fill-rule="evenodd"
       id="path37"
       inkscape:export-xdpi="300"
       inkscape:export-ydpi="300" />
    <path
       stroke="#595959"
       stroke-width="1"
       stroke-linejoin="round"
       stroke-linecap="butt"
       d="m 625.1496,299.43588 v 0 c 0,-5.54614 4.49603,-10.04218 10.04217,-10.04218 h 181.0495 c 2.66333,0 5.21766,1.05802 7.1009,2.94129 1.8833,1.88327 2.94128,4.43756 2.94128,7.10089 v 40.1676 c 0,5.54615 -4.49603,10.04218 -10.04217,10.04218 h -181.0495 c -5.54615,0 -10.04218,-4.49603 -10.04218,-10.04218 z"
       fill-rule="evenodd"
       id="path39"
       inkscape:export-xdpi="300"
       inkscape:export-ydpi="300" />
    <path
       fill="#1c4587"
       d="m 680.67084,322.9553 q 0,-0.76562 -0.54688,-1.17187 -0.54687,-0.42188 -1.96875,-0.875 -1.42187,-0.46875 -2.25,-0.92188 -2.26562,-1.21875 -2.26562,-3.28125 0,-1.07812 0.60937,-1.92187 0.60938,-0.84375 1.73438,-1.3125 1.14062,-0.48438 2.5625,-0.48438 1.40625,0 2.51562,0.51563 1.125,0.51562 1.73438,1.45312 0.60937,0.9375 0.60937,2.14063 h -2.71875 q 0,-0.90625 -0.57812,-1.40625 -0.57813,-0.51563 -1.60938,-0.51563 -1.01562,0 -1.57812,0.42188 -0.54688,0.42187 -0.54688,1.10937 0,0.65625 0.65625,1.09375 0.65625,0.4375 1.92188,0.8125 2.32812,0.70313 3.39062,1.75 1.0625,1.03125 1.0625,2.57813 0,1.71875 -1.29687,2.70312 -1.29688,0.98438 -3.5,0.98438 -1.53125,0 -2.79688,-0.5625 -1.25,-0.5625 -1.92187,-1.53125 -0.65625,-0.98438 -0.65625,-2.26563 h 2.75 q 0,2.1875 2.625,2.1875 0.96875,0 1.51562,-0.39062 0.54688,-0.39063 0.54688,-1.10938 z m 7.50006,3.48438 h -2.73437 v -13.26563 h 2.73437 z m 12.2522,-11.04688 h -4.0625 v 11.04688 h -2.73438 V 315.3928 h -4.01562 v -2.21875 h 10.8125 z m 8.2865,7.5625 q 0,-0.76562 -0.54688,-1.17187 -0.54687,-0.42188 -1.96875,-0.875 -1.42187,-0.46875 -2.25,-0.92188 -2.26562,-1.21875 -2.26562,-3.28125 0,-1.07812 0.60937,-1.92187 0.60938,-0.84375 1.73438,-1.3125 1.14062,-0.48438 2.5625,-0.48438 1.40625,0 2.51562,0.51563 1.125,0.51562 1.73438,1.45312 0.60937,0.9375 0.60937,2.14063 h -2.71875 q 0,-0.90625 -0.57812,-1.40625 -0.57813,-0.51563 -1.60938,-0.51563 -1.01562,0 -1.57812,0.42188 -0.54688,0.42187 -0.54688,1.10937 0,0.65625 0.65625,1.09375 0.65625,0.4375 1.92188,0.8125 2.32812,0.70313 3.39062,1.75 1.0625,1.03125 1.0625,2.57813 0,1.71875 -1.29687,2.70312 -1.29688,0.98438 -3.5,0.98438 -1.53125,0 -2.79688,-0.5625 -1.25,-0.5625 -1.92187,-1.53125 -0.65625,-0.98438 -0.65625,-2.26563 h 2.75 q 0,2.1875 2.625,2.1875 0.96875,0 1.51562,-0.39062 0.54688,-0.39063 0.54688,-1.10938 z"
       fill-rule="nonzero"
       id="path41"
       inkscape:export-xdpi="300"
       inkscape:export-ydpi="300" />
    <path
       fill="#000000"
       d="m 723.8556,313.17404 h 1.76562 v 9.39062 q 0,1.90625 -1.15625,2.98438 -1.14062,1.07812 -3.03125,1.07812 -1.98437,0 -3.09375,-1.01562 -1.09375,-1.01563 -1.09375,-2.82813 h 1.75 q 0,1.14063 0.625,1.78125 0.625,0.625 1.8125,0.625 1.07813,0 1.75,-0.67187 0.67188,-0.6875 0.67188,-1.92188 z m 10.55933,12.29687 q -0.98438,1.15625 -2.89063,1.15625 -1.57812,0 -2.40625,-0.92187 -0.8125,-0.92188 -0.82812,-2.70313 v -6.42187 h 1.6875 v 6.375 q 0,2.23437 1.82812,2.23437 1.92188,0 2.5625,-1.4375 v -7.17187 h 1.6875 v 9.85937 h -1.60937 z m 12.51898,-3.84375 q 0,2.25 -1.03125,3.625 -1.01563,1.375 -2.78125,1.375 -1.79688,0 -2.82813,-1.14062 v 4.75 h -1.67187 v -13.65625 h 1.53125 l 0.0781,1.09375 q 1.03125,-1.26563 2.85938,-1.26563 1.78125,0 2.8125,1.34375 1.03125,1.32813 1.03125,3.71875 z m -1.67188,-0.20312 q 0,-1.65625 -0.71875,-2.625 -0.70312,-0.96875 -1.95312,-0.96875 -1.53125,0 -2.29688,1.35937 v 4.70313 q 0.76563,1.35937 2.32813,1.35937 1.20312,0 1.92187,-0.95312 0.71875,-0.96875 0.71875,-2.875 z m 6.94471,2.54687 2.29687,-7.39062 h 1.79688 l -3.95313,11.375 q -0.92187,2.46875 -2.92187,2.46875 l -0.32813,-0.0312 -0.625,-0.125 v -1.35938 l 0.45313,0.0312 q 0.85937,0 1.32812,-0.34375 0.48438,-0.34375 0.79688,-1.26562 l 0.375,-1 -3.51563,-9.75 h 1.84375 z m 7.88958,-9.78125 v 2.39063 h 1.84375 v 1.3125 h -1.84375 v 6.10937 q 0,0.59375 0.23438,0.89063 0.25,0.29687 0.84375,0.29687 0.29687,0 0.8125,-0.10937 v 1.35937 q -0.67188,0.1875 -1.29688,0.1875 -1.125,0 -1.70312,-0.6875 -0.57813,-0.6875 -0.57813,-1.9375 v -6.10937 h -1.79687 v -1.3125 h 1.79687 v -2.39063 z m 7.89112,12.4375 q -2,0 -3.26563,-1.3125 -1.25,-1.32812 -1.25,-3.53125 v -0.3125 q 0,-1.46875 0.5625,-2.60937 0.5625,-1.15625 1.5625,-1.79688 1.01563,-0.65625 2.1875,-0.65625 1.92188,0 2.98438,1.26563 1.0625,1.26562 1.0625,3.625 v 0.6875 h -6.67188 q 0.0312,1.46875 0.84375,2.375 0.82813,0.89062 2.07813,0.89062 0.89062,0 1.51562,-0.35937 0.625,-0.375 1.07813,-0.96875 l 1.03125,0.79687 q -1.23438,1.90625 -3.71875,1.90625 z m -0.20313,-8.84375 q -1.01562,0 -1.71875,0.75 -0.6875,0.73438 -0.84375,2.07813 h 4.9375 v -0.125 q -0.0781,-1.28125 -0.70312,-1.98438 -0.60938,-0.71875 -1.67188,-0.71875 z m 10.77448,0.3125 q -0.39063,-0.0625 -0.84375,-0.0625 -1.65625,0 -2.25,1.40625 v 7 h -1.67188 v -9.85937 h 1.64063 l 0.0156,1.14062 q 0.82813,-1.3125 2.35938,-1.3125 0.48437,0 0.75,0.125 z"
       fill-rule="nonzero"
       id="path43"
       inkscape:export-xdpi="300"
       inkscape:export-ydpi="300" />
    <path
       fill="#000000"
       fill-opacity="0"
       d="m 256.19684,163.55118 v 17.49536 h 0.063 v 17.49677"
       fill-rule="evenodd"
       id="path45"
       inkscape:export-xdpi="300"
       inkscape:export-ydpi="300" />
    <path
       stroke="#595959"
       stroke-width="1"
       stroke-linejoin="round"
       stroke-linecap="butt"
       stroke-dasharray="4, 3"
       d="m 256.19684,163.55118 v 17.49536 h 0.063 v 11.49677"
       fill-rule="evenodd"
       id="path47"
       inkscape:export-xdpi="300"
       inkscape:export-ydpi="300" />
    <path
       fill="#595959"
       stroke="#595959"
       stroke-width="1"
       stroke-linecap="butt"
       d="m 254.60811,192.5433 1.65175,4.5381 1.6517,-4.5381 z"
       fill-rule="evenodd"
       id="path49"
       inkscape:export-xdpi="300"
       inkscape:export-ydpi="300" />
    <path
       fill="#000000"
       fill-opacity="0"
       d="m 356.7638,228.66798 h 17.60629 v 0.063 h 17.6063"
       fill-rule="evenodd"
       id="path51"
       inkscape:export-xdpi="300"
       inkscape:export-ydpi="300" />
    <path
       stroke="#595959"
       stroke-width="1"
       stroke-linejoin="round"
       stroke-linecap="butt"
       stroke-dasharray="4, 3"
       d="m 356.7638,228.66798 h 17.60629 v 0.063 h 11.6063"
       fill-rule="evenodd"
       id="path53"
       inkscape:export-xdpi="300"
       inkscape:export-ydpi="300" />
    <path
       fill="#595959"
       stroke="#595959"
       stroke-width="1"
       stroke-linecap="butt"
       d="m 385.97638,230.3827 4.53809,-1.65173 -4.53809,-1.65174 z"
       fill-rule="evenodd"
       id="path55"
       inkscape:export-xdpi="300"
       inkscape:export-ydpi="300" />
    <path
       fill="#000000"
       fill-opacity="0"
       d="m 492.5433,258.79398 v 15.29971 h 0.063 v 15.31446"
       fill-rule="evenodd"
       id="path57"
       inkscape:export-xdpi="300"
       inkscape:export-ydpi="300" />
    <path
       stroke="#595959"
       stroke-width="1"
       stroke-linejoin="round"
       stroke-linecap="butt"
       stroke-dasharray="4, 3"
       d="m 492.5433,258.79398 v 15.29974 h 0.063 v 9.31443"
       fill-rule="evenodd"
       id="path59"
       inkscape:export-xdpi="300"
       inkscape:export-ydpi="300" />
    <path
       fill="#595959"
       stroke="#595959"
       stroke-width="1"
       stroke-linecap="butt"
       d="m 490.95456,283.40814 1.65173,4.53809 1.65174,-4.53809 z"
       fill-rule="evenodd"
       id="path61"
       inkscape:export-xdpi="300"
       inkscape:export-ydpi="300" />
    <path
       fill="#000000"
       fill-opacity="0"
       d="m 593.1102,319.51968 h 16.01959 v 0.063 h 16.0119"
       fill-rule="evenodd"
       id="path63"
       inkscape:export-xdpi="300"
       inkscape:export-ydpi="300" />
    <path
       stroke="#595959"
       stroke-width="1"
       stroke-linejoin="round"
       stroke-linecap="butt"
       stroke-dasharray="4, 3"
       d="m 593.1102,319.51968 h 16.01959 v 0.063 h 10.0119"
       fill-rule="evenodd"
       id="path65"
       inkscape:export-xdpi="300"
       inkscape:export-ydpi="300" />
    <path
       fill="#595959"
       stroke="#595959"
       stroke-width="1"
       stroke-linecap="butt"
       d="m 619.1417,321.2344 4.53809,-1.65173 -4.53809,-1.65174 z"
       fill-rule="evenodd"
       id="path67"
       inkscape:export-xdpi="300"
       inkscape:export-ydpi="300" />
  </g>
</svg>
